<svg xmlns="http://www.w3.org/2000/svg" viewBox="0 0 400 125"><defs><style>.cls-1{fill:#fff;}.cls-2{fill:#ff3115;}</style></defs><g id="Layer_2" data-name="Layer 2"><path d="M392.17,53.39a14.57,14.57,0,0,0-3.92-10.1c-2.84-3.07-6.72-4.62-11.53-4.62H366.25a18,18,0,0,0-3.52.29,6.85,6.85,0,0,0-2-.29H346.23A7.24,7.24,0,0,0,339,45.54a13.85,13.85,0,0,0-8.84-6.31,31.42,31.42,0,0,0-6.6-.56h-20A18,18,0,0,0,294.14,41a7.14,7.14,0,0,0-5.36-2.36h-7a7.22,7.22,0,0,0-7.17,6.19,4.66,4.66,0,0,1-.85,1.82l-4,6.08-.16-1.26a20.09,20.09,0,0,1-.11-2.21,3.2,3.2,0,0,1,.15-1,7.23,7.23,0,0,0-6.84-9.61H247.33a7.24,7.24,0,0,0-5.93,3.08,4.57,4.57,0,0,0-.39.62,14.4,14.4,0,0,0-4.39-2.67,18.46,18.46,0,0,0-6.83-1H210.46c-5,0-8.53.54-11,1.68a13.8,13.8,0,0,0-2.51,1.43,3.3,3.3,0,0,0-.22-.3A7.18,7.18,0,0,0,191,38.67h-7.86a19.29,19.29,0,0,0-5.94.83,7.23,7.23,0,0,0-3.39-.83H161.47A20.42,20.42,0,0,0,156.73,28c-3.93-4.48-9.64-6.85-16.51-6.85l-60.47-.67a7.19,7.19,0,0,0-6.94,5.34l-2.26,8.58a7.14,7.14,0,0,0,6.9,9l41.6.09a2,2,0,0,1-.08.75,3.58,3.58,0,0,0-.11.48l-1.94,9.7A8,8,0,0,1,113.76,58l-.1.07a4.5,4.5,0,0,1-1.89.82l-17.23-.1c-3.74,0-6.51,2.38-7.26,6.23l-1.14,3.18-.41.27H74.85L77.59,58l.33-1.27a10.31,10.31,0,0,0,.31-1.9,9.34,9.34,0,0,0-9.49-10.19h-11L60.9,32.6a9.68,9.68,0,0,0-1.59-8.46,9.48,9.48,0,0,0-7.59-3.64H35.91a12,12,0,0,0-11.26,8.78L20.47,45.09a9.75,9.75,0,0,0,1.59,8.46,9.5,9.5,0,0,0,7.6,3.64h11l-3,11.23H23A12,12,0,0,0,11.73,77.2L7.56,93a9.69,9.69,0,0,0,1.59,8.46,9.47,9.47,0,0,0,7.59,3.63H32.55a12,12,0,0,0,11.26-8.78l4-15H58.23L55.15,93a9.69,9.69,0,0,0,1.59,8.46,9.47,9.47,0,0,0,7.59,3.63H380.22a12,12,0,0,0,11.95-11.95V58h-.5A24.25,24.25,0,0,0,392.17,53.39Z"/><path class="cls-1" d="M103.79,92.93l-1,3.7a5.21,5.21,0,0,0-.16,1.33,2.7,2.7,0,0,0,.16.88H95.37c.2-.3.35-.53.45-.71A9.77,9.77,0,0,0,96.59,96l3-11.62a5,5,0,0,0,.16-1.32,2.7,2.7,0,0,0-.16-.88h13.1a9,9,0,0,1,1.61.1,2.82,2.82,0,0,1,2,1.38,3.05,3.05,0,0,1,.43,1.53,5.19,5.19,0,0,1-.2,1.15l-.77,3a4.88,4.88,0,0,1-1.65,2.89,4.4,4.4,0,0,1-2.23.73h-8.12Zm.72-2.74h3a2.38,2.38,0,0,0,1.48-.33,2.21,2.21,0,0,0,.57-1.21l.63-2.39a2.58,2.58,0,0,0,.07-.52.77.77,0,0,0-.33-.68,2.2,2.2,0,0,0-1-.13h-3.09Z"/><path class="cls-1" d="M140.34,96.21l-1.08,2.63H128.58a4,4,0,0,1-2.77-.82,2.91,2.91,0,0,1-1.07-2.27,3.87,3.87,0,0,1,.13-1l1.4-5.41q.7-2.79,3.9-2.78h7.65a10.29,10.29,0,0,1,2,.15,2.82,2.82,0,0,1,1.85,1.36,3,3,0,0,1,.4,1.55,4.52,4.52,0,0,1-.16,1.21l-.78,3H131.06l-.29,1.14a2.6,2.6,0,0,0-.11.67.66.66,0,0,0,.14.41.68.68,0,0,0,.36.25,7.36,7.36,0,0,0,1.11.08h5.91A7.16,7.16,0,0,0,140.34,96.21Zm-8.66-4.68h4.07l.35-1.39a2.15,2.15,0,0,0,.09-.55c0-.42-.29-.62-.87-.62h-1.89a1.74,1.74,0,0,0-.92.18,1.79,1.79,0,0,0-.47,1Z"/><path class="cls-1" d="M160,86.59c0,.29,0,.65,0,1.07a9.94,9.94,0,0,1-.08,1,6.15,6.15,0,0,1,.67-1.07,2.41,2.41,0,0,1,.71-.59,4.17,4.17,0,0,1,2-.42h3.4l-1,4A3.07,3.07,0,0,0,163.6,90h-2.1a2.38,2.38,0,0,0-1.06.18,1.3,1.3,0,0,0-.61.88l-1.46,5.62a5.41,5.41,0,0,0-.15,1.31,3,3,0,0,0,.15.88h-7.05c.21-.31.36-.54.45-.71a9.77,9.77,0,0,0,.77-2.13l1.87-7.2a5.83,5.83,0,0,0,.16-1.33,2.73,2.73,0,0,0-.17-.88Z"/><path class="cls-1" d="M190,86.59,189.39,89h-4.85l-2,7.68a4.85,4.85,0,0,0-.16,1.31,2.7,2.7,0,0,0,.16.88h-7.06c.21-.32.36-.55.45-.71a9.77,9.77,0,0,0,.77-2.13l1.82-7h-2.72l.62-2.38h2.71l.17-.64a8.93,8.93,0,0,1,.77-2.15,3,3,0,0,1,1-1,3.53,3.53,0,0,1,1.37-.52,13.11,13.11,0,0,1,2-.12h6.86L191,85a3.59,3.59,0,0,0-1.89-.39h-1.83a4.56,4.56,0,0,0-1.22.1,1,1,0,0,0-.54.69l-.31,1.24Z"/><path class="cls-1" d="M204.58,86.59H212a4.74,4.74,0,0,1,1.69.22,2.89,2.89,0,0,1,1.74,1.71,3.44,3.44,0,0,1,.24,1.26,5.59,5.59,0,0,1-.21,1.4l-1.15,4.48a7.59,7.59,0,0,1-.42,1.25,3.4,3.4,0,0,1-1.77,1.64,8.86,8.86,0,0,1-2.71.29H202a12.1,12.1,0,0,1-1.74-.08,2.7,2.7,0,0,1-1.82-1.22,3.15,3.15,0,0,1-.51-1.76,4.33,4.33,0,0,1,.15-1l1.38-5.37A3.36,3.36,0,0,1,201.35,87,8.25,8.25,0,0,1,204.58,86.59Zm.74,3.46-1.29,5a5.24,5.24,0,0,0-.13.72.65.65,0,0,0,.43.6,2.21,2.21,0,0,0,.73.08h1.78a3.38,3.38,0,0,0,.81,0,1.27,1.27,0,0,0,.73-1l1.23-4.74a3.77,3.77,0,0,0,.15-.9c0-.54-.42-.81-1.25-.81H207a3.31,3.31,0,0,0-.94.08A1.38,1.38,0,0,0,205.32,90.05Z"/><path class="cls-1" d="M233.66,86.59c0,.29,0,.65,0,1.07s0,.64-.09,1a7.66,7.66,0,0,1,.67-1.07,2.69,2.69,0,0,1,.71-.59,4.24,4.24,0,0,1,2-.42h3.39l-1,4a3.09,3.09,0,0,0-2.05-.63h-2.1a2.43,2.43,0,0,0-1.07.18,1.33,1.33,0,0,0-.61.88L232,96.65a5.4,5.4,0,0,0-.16,1.31,3,3,0,0,0,.16.88H225c.21-.31.36-.54.45-.71a9.77,9.77,0,0,0,.77-2.13l1.86-7.2a5.32,5.32,0,0,0,.16-1.33,2.48,2.48,0,0,0-.17-.88Z"/><path class="cls-1" d="M257,86.59l-.3,1.18a2.23,2.23,0,0,1,.83-1,3.31,3.31,0,0,1,1.44-.23h6a2.32,2.32,0,0,1,1.11.19,1.74,1.74,0,0,1,.68,1,2.17,2.17,0,0,1,.79-1,2.49,2.49,0,0,1,1.12-.2h4.36a3.11,3.11,0,0,1,2.3.85,3.27,3.27,0,0,1,1,2.43,6.33,6.33,0,0,1-.25,1.43l-1.38,5.35a5.06,5.06,0,0,0-.16,1.31,2.7,2.7,0,0,0,.16.88h-7.06c.21-.31.36-.54.45-.71a8.81,8.81,0,0,0,.77-2.13l1.42-5.46a3.38,3.38,0,0,0,.12-.77c0-.54-.39-.8-1.18-.8h-1.48a1.69,1.69,0,0,0-.93.2,2.15,2.15,0,0,0-.51,1l-1.66,6.45A5.05,5.05,0,0,0,264.5,98a2.67,2.67,0,0,0,.17.86H257.6a7,7,0,0,0,.46-.71,10.33,10.33,0,0,0,.77-2.13l1.37-5.35a7.18,7.18,0,0,0,.2-.94.68.68,0,0,0-.43-.63,1.17,1.17,0,0,0-.58-.11h-1.48a2.07,2.07,0,0,0-1.12.22,1.93,1.93,0,0,0-.54,1.09l-1.65,6.37a5.4,5.4,0,0,0-.16,1.31,3,3,0,0,0,.16.88h-7c.21-.31.36-.54.45-.71a9.77,9.77,0,0,0,.77-2.13l1.86-7.2a5.32,5.32,0,0,0,.16-1.33,2.48,2.48,0,0,0-.17-.88Z"/><path class="cls-1" d="M289.68,86.59h11.19a3.23,3.23,0,0,1,2.18.67,3.08,3.08,0,0,1,1.12,2.43,6.92,6.92,0,0,1-.27,1.66l-1.36,5.28a5.1,5.1,0,0,0-.16,1.33,2.74,2.74,0,0,0,.16.88h-5.93a3,3,0,0,1-.14-.88v-.33a2,2,0,0,1-.94,1,3.81,3.81,0,0,1-1.44.25h-3.54a4,4,0,0,1-2.61-.75,2.75,2.75,0,0,1-1.1-2.24,4.13,4.13,0,0,1,.17-1.13l.3-1.19a3.83,3.83,0,0,1,1.5-2.4,3.34,3.34,0,0,1,1.29-.44,10.08,10.08,0,0,1,1.2,0H297a1.41,1.41,0,0,0,.85-.16,1,1,0,0,0,.35-.86.52.52,0,0,0-.35-.55,2.84,2.84,0,0,0-1-.11h-6a5.38,5.38,0,0,0-2.6.47Zm7.75,6.4h-2.9a1.94,1.94,0,0,0-.94.16,1.4,1.4,0,0,0-.43.83l-.33,1.25a3.44,3.44,0,0,0-.1.51.62.62,0,0,0,.32.59,2,2,0,0,0,.87.13h1.47a2.18,2.18,0,0,0,1-.14,1.43,1.43,0,0,0,.35-.74Z"/><path class="cls-1" d="M323.16,86.59l-.29,1.13a2,2,0,0,1,.89-1,3.53,3.53,0,0,1,1.16-.14h4a3.37,3.37,0,0,1,2.6,1,3.16,3.16,0,0,1,.84,2.19,8.36,8.36,0,0,1-.29,2l-1.28,5a5,5,0,0,0-.16,1.31,2.7,2.7,0,0,0,.16.88h-7.06c.21-.31.36-.54.45-.71A9.77,9.77,0,0,0,325,96l1.4-5.43a7.59,7.59,0,0,0,.21-1q0-.46-.54-.6a3.89,3.89,0,0,0-.63,0H324a1.61,1.61,0,0,0-1,.23,1.7,1.7,0,0,0-.49.94l-1.68,6.51a5,5,0,0,0-.16,1.31,2.7,2.7,0,0,0,.16.88h-7.06c.21-.31.36-.54.45-.71A9.27,9.27,0,0,0,315,96l1.87-7.2a5.32,5.32,0,0,0,.16-1.33,2.73,2.73,0,0,0-.17-.88Z"/><path class="cls-1" d="M358.06,89.37a3.89,3.89,0,0,0-1.93-.4H352a2,2,0,0,0-1.1.22.92.92,0,0,0-.39.45,2.61,2.61,0,0,0-.19.58L349.1,95a3.08,3.08,0,0,0-.12.64.65.65,0,0,0,.48.68,4.37,4.37,0,0,0,1.19.12h3.49a12.07,12.07,0,0,0,1.27,0,3.62,3.62,0,0,0,.87-.25l-1.1,2.68H347a4.76,4.76,0,0,1-2.92-.69A2.72,2.72,0,0,1,343,96a6.3,6.3,0,0,1,.23-1.4l1.32-5.09a3.66,3.66,0,0,1,1.57-2.36,5.78,5.78,0,0,1,2.92-.52h9.37Z"/><path class="cls-1" d="M383,96.21,382,98.84H371.29a4,4,0,0,1-2.77-.82,2.92,2.92,0,0,1-1.08-2.27,3.91,3.91,0,0,1,.14-1l1.4-5.41q.69-2.79,3.89-2.78h7.66a10.36,10.36,0,0,1,2,.15,2.78,2.78,0,0,1,1.84,1.36,3,3,0,0,1,.41,1.55,5,5,0,0,1-.16,1.21l-.78,3H373.77l-.3,1.14a3.13,3.13,0,0,0-.11.67.67.67,0,0,0,.15.41.66.66,0,0,0,.35.25,7.67,7.67,0,0,0,1.11.08h5.91A7.08,7.08,0,0,0,383,96.21Zm-8.65-4.68h4.06l.36-1.39a2.59,2.59,0,0,0,.08-.55c0-.42-.29-.62-.86-.62h-1.9a1.7,1.7,0,0,0-.91.18,1.86,1.86,0,0,0-.48,1Z"/><path class="cls-1" d="M164.9,35.71a1,1,0,0,1-.86-.5,1,1,0,0,1,0-1,2.8,2.8,0,0,0,.3-.79l1.42-5.7a2.15,2.15,0,0,0,.09-.72,1,1,0,0,1,1-1.09h6.39a1,1,0,0,1,1,1.09l-.1,1.18a1,1,0,0,1-.5.79,1.05,1.05,0,0,1-.49.13,1.13,1.13,0,0,1-.44-.1,1.69,1.69,0,0,0-.73-.09h-2.16l-.09.37H171a2.35,2.35,0,0,0,.89-.12,1.1,1.1,0,0,1,.36-.07,1,1,0,0,1,.66.25,1,1,0,0,1,.31,1l-.34,1.36a1,1,0,0,1-1,.76,1,1,0,0,1-.44-.1,2,2,0,0,0-.72-.08H169l-.41,1.63a2.09,2.09,0,0,0-.09.72,1,1,0,0,1-.26.76,1,1,0,0,1-.73.32Z"/><path d="M164.9,34.71a3.87,3.87,0,0,0,.41-1L166.73,28a3.09,3.09,0,0,0,.12-1.05h6.39l-.09,1.19a2.94,2.94,0,0,0-1.17-.19h-2.62a.41.41,0,0,0-.4.32l-.38,1.53a.42.42,0,0,0,.4.52h2a3.63,3.63,0,0,0,1.25-.19l-.34,1.37a2.91,2.91,0,0,0-1.16-.18h-2.24a.41.41,0,0,0-.41.31l-.52,2.08a2.82,2.82,0,0,0-.11,1Z"/><path class="cls-1" d="M182,35.71a1.09,1.09,0,0,1-.36-.06,2.65,2.65,0,0,1-.58.06h-2.63A2.12,2.12,0,0,1,176.7,35a2.92,2.92,0,0,1-.19-2.54,4.09,4.09,0,0,1,1-2,1,1,0,0,1-.06-.85l.38-1a1,1,0,0,1,.93-.64h5.07a2.11,2.11,0,0,1,1.76.72,2.29,2.29,0,0,1,.27,2.05l-.73,2.9c-.09.36-.13.61-.16.8a1.41,1.41,0,0,1-1.4,1.25Zm-.84-2.9,0-.17h-.55l0,.17Z"/><path d="M184.15,33.42a9,9,0,0,0-.18.93.4.4,0,0,1-.41.36H182l0-.59h0a1,1,0,0,1-1,.59h-2.63c-1,0-1.33-.41-.94-2s.93-2,1.93-2h3a.33.33,0,0,0,.37-.27l.09-.36c0-.2,0-.27-.24-.27h-3.19a4,4,0,0,0-1.06.12l.38-1h5.07c1,0,1.32.47,1.06,1.53Zm-3.92-1.78c-.28,0-.39.11-.46.42l-.34,1.34c-.07.3,0,.41.26.41h1.88c.28,0,.39-.11.47-.41l.31-1.24a.43.43,0,0,0-.41-.52Z"/><path class="cls-1" d="M190,35.71a1,1,0,0,1-.74-.32,1,1,0,0,1-.26-.76l.09-1a1,1,0,0,1,.45-.75.9.9,0,0,1,.24-.12,2.57,2.57,0,0,1-.07-1.78l.18-.7a2.64,2.64,0,0,1,2.66-2.3h5a1,1,0,0,1,.74.32,1,1,0,0,1,.26.76l-.09,1a1,1,0,0,1-.45.75,1.29,1.29,0,0,1-.16.09,2.14,2.14,0,0,1,.06,1.41l-.34,1.37a2.61,2.61,0,0,1-2.75,2Z"/><path d="M196.68,33.43a1.61,1.61,0,0,1-1.78,1.28H190l.08-1a3.85,3.85,0,0,0,1.36.13h2.58a.53.53,0,0,0,.55-.38l.08-.31c0-.24-.08-.38-.36-.38h-2.69c-.88,0-1.18-.5-.92-1.56l.18-.7c.26-1.06.81-1.54,1.69-1.54h5l-.09,1a3.75,3.75,0,0,0-1.35-.13h-2.68a.43.43,0,0,0-.47.34l-.06.27c-.06.23,0,.34.29.34h2.61c1,0,1.36.43,1.14,1.28Z"/><path class="cls-1" d="M204.33,35.71a2,2,0,0,1-1.67-.72,2.42,2.42,0,0,1-.29-2.14l.51-2a1,1,0,0,1-.62-.37,1,1,0,0,1-.18-.85l.21-.86a1,1,0,0,1,1-.75h.33l0-.14a1.4,1.4,0,0,1,1.2-1.06l1.9-.25h.13a1,1,0,0,1,.75.33,1,1,0,0,1,.22.91l0,.21h.78a1,1,0,0,1,1,1.24l-.21.85a1,1,0,0,1-1,.76h-1.28l-.49,2h.1a4.93,4.93,0,0,0,.85-.06,1,1,0,0,1,.38-.07,1,1,0,0,1,.92,1.4l-.45,1a1,1,0,0,1-.92.6Z"/><path d="M208.34,29.84H206.6a.41.41,0,0,0-.4.32l-.77,3.07c-.12.47,0,.58.38.58h.87a4,4,0,0,0,1.22-.13l-.45,1h-3.12c-.85,0-1.26-.5-1-1.62l.82-3.25h-1.11l.21-.85h1.11l.22-.9a.42.42,0,0,1,.35-.31l1.91-.24L206.49,29h2.06Z"/><path class="cls-1" d="M223.49,35.71a1,1,0,0,1-.86-1.5,2.69,2.69,0,0,0,.3-.79l1.42-5.7a2.12,2.12,0,0,0,.09-.72,1,1,0,0,1,1-1.09H228a1,1,0,0,1,.87.51,1,1,0,0,1,0,1,2.47,2.47,0,0,0-.3.78l-1.43,5.71a2.37,2.37,0,0,0-.09.72,1,1,0,0,1-1,1.08Z"/><path d="M228,26.91a3.69,3.69,0,0,0-.4,1.05l-1.43,5.71a3.05,3.05,0,0,0-.11,1h-2.59a3.57,3.57,0,0,0,.41-1L225.32,28a3.09,3.09,0,0,0,.12-1.05Z"/><path class="cls-1" d="M232.47,35.51a1,1,0,0,1-.74-.33,1,1,0,0,1-.26-.76l.09-1a1,1,0,0,1,.45-.75.74.74,0,0,1,.24-.11,2.6,2.6,0,0,1-.07-1.79l.17-.7a2.66,2.66,0,0,1,2.66-2.3h5.06a1,1,0,0,1,1,1.09l-.09,1a1,1,0,0,1-.45.75.65.65,0,0,1-.16.09,2.15,2.15,0,0,1,.06,1.41l-.34,1.37a2.62,2.62,0,0,1-2.75,2Z"/><path d="M239.12,33.23a1.62,1.62,0,0,1-1.78,1.28h-4.87l.08-1a3.85,3.85,0,0,0,1.36.13h2.58a.52.52,0,0,0,.55-.38l.08-.31c0-.23-.08-.38-.36-.38h-2.69c-.88,0-1.18-.5-.92-1.56l.17-.69c.27-1.06.82-1.55,1.69-1.55h5.06l-.08,1a3.78,3.78,0,0,0-1.36-.14H236a.41.41,0,0,0-.46.34l-.07.27c-.06.23,0,.34.29.34h2.61c1,0,1.35.43,1.14,1.28Z"/><path class="cls-1" d="M260.54,35.71a1,1,0,0,1-.85-.48,1,1,0,0,1,0-1h0a4.76,4.76,0,0,0-.08-.64l0-.11h-2.2l-.49.73a2.57,2.57,0,0,0-.27.52,1.41,1.41,0,0,1-1.33,1h-1.2a1,1,0,0,1-.92-.61,1,1,0,0,1,.21-1.09,9.67,9.67,0,0,0,1.1-1.37l3.73-5.35h0a1,1,0,0,1,.93-1.37h2.21a1.43,1.43,0,0,1,1.39,1.14l1.23,6a5.72,5.72,0,0,0,.27,1.06,1,1,0,0,1,.13,1,1,1,0,0,1-.92.56Z"/><path d="M257.06,32.5a.41.41,0,0,0-.35.18l-.67,1a3.51,3.51,0,0,0-.38.75.42.42,0,0,1-.39.29h-1.2a10.24,10.24,0,0,0,1.21-1.5l4-5.78-.21-.52h2.21a.42.42,0,0,1,.41.34l1.23,6a3.74,3.74,0,0,0,.46,1.47h-2.88a.48.48,0,0,0,.07-.18,2.55,2.55,0,0,0-.05-1.11l-.18-.92Zm3-1.51-.3-1.47a.42.42,0,0,0-.76-.16l-1,1.48a.42.42,0,0,0,.35.66h1.31A.43.43,0,0,0,260.08,31Z"/><path class="cls-1" d="M269,35.71a1,1,0,0,1-.88-1.46,5.19,5.19,0,0,0,.36-1.07l1.3-5.22a7.82,7.82,0,0,0,.16-.79,1.41,1.41,0,0,1,1.41-1.26h1.3A1.43,1.43,0,0,1,274,27.68l-1.49,6a6.12,6.12,0,0,0-.16.8A1.41,1.41,0,0,1,271,35.71Z"/><path d="M271.58,33.42a5.59,5.59,0,0,0-.18.93.42.42,0,0,1-.42.36h-2a5.4,5.4,0,0,0,.45-1.29l1.3-5.21c.1-.42.15-.71.18-.93a.41.41,0,0,1,.42-.37h1.3a.42.42,0,0,1,.41.53Z"/><path class="cls-1" d="M277.86,35.71a1,1,0,0,1-.88-1.46,4.81,4.81,0,0,0,.35-1.07L278.64,28a7.82,7.82,0,0,0,.16-.79,1.41,1.41,0,0,1,1.4-1.26h1.31a1.43,1.43,0,0,1,1.38,1.77l-1.49,6a6.12,6.12,0,0,0-.16.8,1.41,1.41,0,0,1-1.41,1.25Z"/><path d="M280.43,33.42a7.26,7.26,0,0,0-.19.93.4.4,0,0,1-.41.36h-2a5.4,5.4,0,0,0,.45-1.29l1.3-5.21c.1-.42.15-.71.18-.93a.41.41,0,0,1,.41-.37h1.31a.43.43,0,0,1,.41.53Z"/><path class="cls-1" d="M303.43,35.71A1.4,1.4,0,0,1,302,34.33l0-.77-.71,1.38a1.39,1.39,0,0,1-1.26.77h-1.7a1.42,1.42,0,0,1-1.42-1.37l-.18-5.94c0-.42,0-.69-.05-.87A1.4,1.4,0,0,1,297,26.4a1.42,1.42,0,0,1,1.07-.49h2.32a1,1,0,0,1,.87.51,1,1,0,0,1,0,1,1.17,1.17,0,0,0-.15.33,2.1,2.1,0,0,0,0,.59v.7l1.2-2.36a1.43,1.43,0,0,1,1.27-.78h1.13a1.43,1.43,0,0,1,1.42,1.4l0,1.69.53-1.06a3.66,3.66,0,0,0,.3-.72c0-.13,0-.18,0-.18a.91.91,0,0,1,.2-.8,1,1,0,0,1,.78-.33h1.59a1,1,0,0,1,.71,1.71,4.28,4.28,0,0,0-.79,1.18l-3.14,6.14a1.4,1.4,0,0,1-1.26.77Z"/><path d="M298.32,34.71a.42.42,0,0,1-.42-.4l-.18-6a6.63,6.63,0,0,0-.07-1,.42.42,0,0,1,.42-.47h2.32a2.77,2.77,0,0,0-.26.6,3.07,3.07,0,0,0-.07.85l.08,4.67h0l3-5.89a.44.44,0,0,1,.38-.23h1.13a.42.42,0,0,1,.42.42l.09,5.7h0l2.34-4.64a5.68,5.68,0,0,0,.38-.93,1.24,1.24,0,0,0,.05-.55h1.59a5.14,5.14,0,0,0-1,1.44l-3.14,6.13a.42.42,0,0,1-.37.23h-1.65a.41.41,0,0,1-.42-.41l-.11-4.67h0l-2.48,4.85a.41.41,0,0,1-.37.23Z"/><path class="cls-1" d="M314.58,35.71a2.1,2.1,0,0,1-1.76-.72,2.26,2.26,0,0,1-.27-2.05l.66-2.66A2.69,2.69,0,0,1,316,28h4a2.08,2.08,0,0,1,1.75.72,2.26,2.26,0,0,1,.27,2.05l-.38,1.54a1.42,1.42,0,0,1-.59.84,1,1,0,0,1,.12,1l-.41,1a1,1,0,0,1-.92.61Z"/><path d="M315.84,32.37l-.25,1c-.08.3,0,.41.26.41h3.69a3.91,3.91,0,0,0,.69-.07l-.41,1h-5.24c-1,0-1.32-.47-1.06-1.53l.66-2.66A1.73,1.73,0,0,1,316,29h4c1,0,1.32.47,1,1.53l-.38,1.54a.43.43,0,0,1-.41.31Zm2.83-.9.3-1.17c.07-.3,0-.41-.27-.41h-1.87c-.28,0-.4.11-.47.41l-.29,1.17Z"/><path class="cls-1" d="M341.41,35.71A1.42,1.42,0,0,1,340,34.64l-.47-1.94,0,0-.3,1.19a2.09,2.09,0,0,0-.09.72,1,1,0,0,1-1,1.08h-2.58a1,1,0,0,1-.86-1.5,2.8,2.8,0,0,0,.3-.79l1.42-5.7a2.06,2.06,0,0,0,.09-.72,1,1,0,0,1,1-1.09h2.58a1,1,0,0,1,.87.51,1,1,0,0,1,0,1,2.7,2.7,0,0,0-.24.56l1.43-1.15c.22-.17.27-.24.27-.25a1.43,1.43,0,0,1,1.2-.67h1.68a1,1,0,0,1,1,.75,1,1,0,0,1-.47,1.12,9.35,9.35,0,0,0-1.25.82l-1.26,1.09,1,3.62a1.87,1.87,0,0,0,.36.8,1,1,0,0,1-.8,1.6Z"/><path d="M338.74,32.08a.4.4,0,0,0-.14.22l-.34,1.37a3.06,3.06,0,0,0-.12,1h-2.58a3.87,3.87,0,0,0,.41-1L337.39,28a3.09,3.09,0,0,0,.12-1.05h2.58a4.07,4.07,0,0,0-.41,1.05L339,30.64l3.76-3a1.93,1.93,0,0,0,.48-.49.44.44,0,0,1,.36-.21h1.68a12.14,12.14,0,0,0-1.4.93l-1.54,1.34a.43.43,0,0,0-.13.43l1.11,4a2.91,2.91,0,0,0,.52,1.13h-2.44a.43.43,0,0,1-.41-.32l-.69-2.84a.42.42,0,0,0-.68-.22Z"/><path class="cls-1" d="M354,35.71a1,1,0,0,1-.85-.48,1,1,0,0,1,0-1,4.61,4.61,0,0,0,.36-1.07l.58-2.29h-.48l-.69,2.77a6.12,6.12,0,0,0-.16.8,1.41,1.41,0,0,1-1.41,1.25h-2a1,1,0,0,1-.89-1.46,4.61,4.61,0,0,0,.36-1.07l.78-3.14a6.12,6.12,0,0,0,.16-.8A1.42,1.42,0,0,1,351.2,28h1.72a1.06,1.06,0,0,1,.31,0,1.91,1.91,0,0,1,.43,0h2.6a2.1,2.1,0,0,1,1.76.72,2.26,2.26,0,0,1,.27,2.05l-.72,2.9a6.12,6.12,0,0,0-.16.8A1.42,1.42,0,0,1,356,35.71Z"/><path d="M352.92,29l-.09.58h0c.26-.45.45-.58.81-.58h2.6c1,0,1.32.47,1.06,1.53l-.72,2.9a7.26,7.26,0,0,0-.19.93.4.4,0,0,1-.41.36h-2a5.69,5.69,0,0,0,.44-1.29l.78-3.12c.08-.3,0-.41-.26-.41h-1.8c-.28,0-.4.11-.47.41l-.78,3.12a6.6,6.6,0,0,0-.18.93.42.42,0,0,1-.42.36h-2a5.69,5.69,0,0,0,.44-1.29l.78-3.14a7.62,7.62,0,0,0,.19-.93.4.4,0,0,1,.41-.36Z"/><path class="cls-1" d="M363.87,35.71a2.11,2.11,0,0,1-1.76-.72,2.29,2.29,0,0,1-.26-2.05l.66-2.66A2.69,2.69,0,0,1,365.3,28h4a2.1,2.1,0,0,1,1.76.72,2.26,2.26,0,0,1,.27,2.05l-.66,2.66a2.7,2.7,0,0,1-2.79,2.29Zm2.74-2.9.48-1.92h-.55l-.48,1.92Z"/><path d="M363.87,34.71c-1,0-1.32-.47-1.05-1.53l.66-2.66A1.72,1.72,0,0,1,365.3,29h4c1,0,1.32.47,1.06,1.53l-.66,2.66a1.73,1.73,0,0,1-1.82,1.53Zm3.15-.9c.28,0,.39-.11.47-.41l.77-3.1c.08-.3,0-.41-.26-.41h-1.88c-.28,0-.39.11-.47.41l-.77,3.1c-.07.3,0,.41.27.41Z"/><path class="cls-1" d="M381.57,35.71a1.4,1.4,0,0,1-1.42-1.38v-.2l-.38.79a1.44,1.44,0,0,1-1.28.79h-1.57a1.41,1.41,0,0,1-1.42-1.38l-.09-3.71a6.72,6.72,0,0,0-.07-1,1.4,1.4,0,0,1,1.4-1.63h1.95a1,1,0,0,1,1,.78,1.44,1.44,0,0,1,1.27-.78h1.8a1.41,1.41,0,0,1,1.39,1.13l.08-.18a1,1,0,0,1,1-1h1.17a1,1,0,0,1,.65,1.76c-.06.09-.42.8-1.07,2.09l-1.55,3.09a1.43,1.43,0,0,1-1.27.78Z"/><path d="M376.4,30.59a7.79,7.79,0,0,0-.08-1.13.41.41,0,0,1,.41-.47h1.95a1.6,1.6,0,0,0-.14.39,28.26,28.26,0,0,0,0,3.75h0l1.93-3.91a.41.41,0,0,1,.37-.23h1.8a.43.43,0,0,1,.42.4l.11,3.74h0L385,29.69a4,4,0,0,0,.21-.5.83.83,0,0,0,0-.2h1.17a13.41,13.41,0,0,0-1.44,2.65l-1.43,2.84a.41.41,0,0,1-.37.23h-1.54a.41.41,0,0,1-.42-.41L381,30.09h0l-2.16,4.4a.43.43,0,0,1-.38.23h-1.57a.43.43,0,0,1-.42-.41Z"/><path class="cls-1" d="M235.5,42.49a15.55,15.55,0,0,0-5.71-.82H210.46c-4.51,0-7.73.47-9.81,1.43a11.77,11.77,0,0,0-6.4,7.17L195.1,47A4.24,4.24,0,0,0,191,41.67h-7.86a14.71,14.71,0,0,0-6.35,1.21,4.27,4.27,0,0,0-3-1.21H161a4.22,4.22,0,0,0-2.28.69A18.15,18.15,0,0,0,154.47,30c-3.34-3.82-8.28-5.83-14.29-5.83l-60.43-.67a4.18,4.18,0,0,0-4,3.1L73.45,35.2a4.15,4.15,0,0,0,4,5.21l41.94.09a2.42,2.42,0,0,1,2,1,4.1,4.1,0,0,1,.48,3.58c0,.09,0,.18-.06.25l-2,9.87c-1,3.31-5.51,6.66-8.08,6.66l-17.21-.1c-2.31,0-3.89,1.41-4.34,3.9l0,.11-1.56,4.38-2,1.26a.75.75,0,0,1-.26,0H71L75,56A6.72,6.72,0,0,0,74,50.13a6.5,6.5,0,0,0-5.22-2.47H53.83L58,31.83A6.73,6.73,0,0,0,56.94,26a6.5,6.5,0,0,0-5.22-2.47H35.91a8.94,8.94,0,0,0-8.36,6.55L23.38,45.86a6.69,6.69,0,0,0,1.06,5.86,6.5,6.5,0,0,0,5.22,2.47H44.57L40.28,70.43l-1.61,1H23A8.93,8.93,0,0,0,14.63,78L10.46,93.77a6.72,6.72,0,0,0,1.06,5.86,6.5,6.5,0,0,0,5.22,2.47H32.55a8.93,8.93,0,0,0,8.36-6.54l4.17-15.81a5.27,5.27,0,0,0,.14-.64l1.21-.76H62.12L58.05,93.77a6.69,6.69,0,0,0,1.07,5.86,6.49,6.49,0,0,0,5.21,2.47H80.14a8.92,8.92,0,0,0,8.36-6.54l4.18-15.81c0-.17.08-.33.11-.49l1.24-.9,30.2.14c13.81,0,24.45-6.21,29.4-16.86l-1.84,7.09a21.35,21.35,0,0,1-1.69,4.78,5.49,5.49,0,0,1-.3.49,4.3,4.3,0,0,0-.13,4.33,4.25,4.25,0,0,0,3.72,2.2h16a4.26,4.26,0,0,0,4.15-5.16,3.1,3.1,0,0,1-.08-.62,10.08,10.08,0,0,1,.3-2.55s3.79-14.67,3.8-14.69a6.47,6.47,0,0,1,.94,0h5.36a6.17,6.17,0,0,1,2.83.56,4.28,4.28,0,0,0,2.15.58,4.24,4.24,0,0,0,3.84-2.44l-2.39,9.31a13.86,13.86,0,0,0-.53,3.59,11.61,11.61,0,0,0,1.92,6.51,10.45,10.45,0,0,0,6.93,4.67,28.09,28.09,0,0,0,5.25.29h19.26c4,0,6.55-.33,8.31-1a12.41,12.41,0,0,0,6.44-5.94,21.05,21.05,0,0,0,1.34-4l3-11.63a17.93,17.93,0,0,0,.66-4.51,12.5,12.5,0,0,0-.88-4.57A10.89,10.89,0,0,0,235.5,42.49Z"/><path class="cls-1" d="M331.19,67.71h.38a4.25,4.25,0,0,0,4.12-3.2l1.88-7.34a15.78,15.78,0,0,0,.53-4,11.26,11.26,0,0,0-1.53-5.81,10.72,10.72,0,0,0-7.06-5.16,28.69,28.69,0,0,0-5.95-.49h-20c-5.27,0-8.53,1.88-10.55,4.19a4.12,4.12,0,0,0-.39-1.72,4.19,4.19,0,0,0-3.86-2.47h-7a4.23,4.23,0,0,0-4.2,3.64,7.46,7.46,0,0,1-1.32,3l-8.48,12.79-1.19-9.27a21.9,21.9,0,0,1-.13-2.57,6.21,6.21,0,0,1,.32-2,4.23,4.23,0,0,0-4-5.62H247.33a4.23,4.23,0,0,0-4,5.69,22,22,0,0,1,.93,4l3.62,25.48a4.28,4.28,0,0,0,4.21,3.65h16a4.25,4.25,0,0,0,3.53-1.87l18.11-26.85c.18-.29.35-.55.53-.82l-.15.53L286.49,65.6A13.93,13.93,0,0,0,286,69a11,11,0,0,0,4,8.51c2.24,2,5.45,3,9.54,3H326.8a4.23,4.23,0,0,0,3.93-2.65l2-5a4.25,4.25,0,0,0-1.59-5.15Z"/><path class="cls-1" d="M386.05,45.33c-2.25-2.43-5.39-3.66-9.33-3.66H366.25a12.74,12.74,0,0,0-3.69.42,4.18,4.18,0,0,0-1.85-.42H346.23a4.24,4.24,0,0,0-4.13,5.22,2.29,2.29,0,0,1,.08.56,10.55,10.55,0,0,1-.3,2.58L337,68.73a22.18,22.18,0,0,1-1.68,4.78l-.3.49a4.26,4.26,0,0,0,3.58,6.53h16a4.2,4.2,0,0,0,4.2-4.66h1.61a4.24,4.24,0,0,0,4.22,4.66h16a4.24,4.24,0,0,0,4.14-5.16,3.1,3.1,0,0,1-.08-.62A10.06,10.06,0,0,1,385,72.2l3.33-12.87a24,24,0,0,0,.87-5.94A11.65,11.65,0,0,0,386.05,45.33Z"/><path class="cls-2" d="M173.8,45.17a.74.74,0,0,1,.75.78c0,.59-.05,1.26-.08,2s-.1,1.66-.22,2.63A16.51,16.51,0,0,1,176,47.8a6.48,6.48,0,0,1,1.84-1.52,10.79,10.79,0,0,1,5.3-1.11H191a.74.74,0,0,1,.72.93l-2.18,8.45a.75.75,0,0,1-1.11.45,9.39,9.39,0,0,0-4.49-1h-5.46a6.2,6.2,0,0,0-2.76.47,3.43,3.43,0,0,0-1.59,2.29l-3.78,14.6a13.84,13.84,0,0,0-.41,3.43,6.14,6.14,0,0,0,.16,1.37.75.75,0,0,1-.73.91h-16a.76.76,0,0,1-.63-1.16c.17-.26.31-.49.41-.68a25.21,25.21,0,0,0,2-5.55L160,50.91a14.45,14.45,0,0,0,.41-3.46,6.24,6.24,0,0,0-.17-1.36.74.74,0,0,1,.72-.92Z"/><path class="cls-2" d="M265.22,68.91a.75.75,0,0,0,1.37.32l12.57-19A10.62,10.62,0,0,0,281,45.83a.75.75,0,0,1,.74-.66h7a.75.75,0,0,1,.57,1.24,30.75,30.75,0,0,0-2.55,3.52L268.75,76.7a.76.76,0,0,1-.63.33h-16a.74.74,0,0,1-.74-.64l-3.62-25.48a26.07,26.07,0,0,0-1.11-4.74.74.74,0,0,1,.7-1h15.42a.73.73,0,0,1,.7,1,9.63,9.63,0,0,0-.51,3.15,24.64,24.64,0,0,0,.16,3Z"/><path class="cls-2" d="M329.54,71.54l-2.05,5a.74.74,0,0,1-.69.47H299.53q-4.83,0-7.2-2.13a7.6,7.6,0,0,1-2.8-5.9,10.45,10.45,0,0,1,.35-2.54l3.65-14.06q1.82-7.26,10.13-7.24h19.9a25.12,25.12,0,0,1,5.2.41,7.26,7.26,0,0,1,4.79,3.52,7.79,7.79,0,0,1,1.05,4,12.36,12.36,0,0,1-.41,3.14l-1.89,7.37a.74.74,0,0,1-.73.57h-25a.74.74,0,0,0-.72.56l-.62,2.39a7.74,7.74,0,0,0-.28,1.75,1.74,1.74,0,0,0,.38,1.08,1.59,1.59,0,0,0,.92.63,19.49,19.49,0,0,0,2.89.22h15.36a23,23,0,0,0,4.24-.32A.75.75,0,0,1,329.54,71.54ZM308.56,58h9a.74.74,0,0,0,.72-.57l.78-3.05A5.8,5.8,0,0,0,319.3,53q0-1.62-2.25-1.62h-4.92a4.39,4.39,0,0,0-2.38.48,4.81,4.81,0,0,0-1.24,2.57l-.68,2.68A.75.75,0,0,0,308.56,58Z"/><path class="cls-2" d="M360.71,45.17a.75.75,0,0,1,.73.93l-.52,2a5.39,5.39,0,0,1,2.31-2.57,8.47,8.47,0,0,1,3-.38h10.47c2.94,0,5.2.84,6.76,2.53a8.2,8.2,0,0,1,2.19,5.69,20.9,20.9,0,0,1-.76,5.07l-3.33,12.86a13.38,13.38,0,0,0-.42,3.43,6.87,6.87,0,0,0,.16,1.37.74.74,0,0,1-.72.91h-16a.75.75,0,0,1-.63-1.16c.17-.26.3-.49.41-.68a25.75,25.75,0,0,0,2-5.55l3.65-14.13a19.56,19.56,0,0,0,.54-2.5c0-.81-.47-1.33-1.4-1.56a8.49,8.49,0,0,0-1.65-.1H363.8a4.32,4.32,0,0,0-2.57.61A4.41,4.41,0,0,0,360,54.4l-4.38,16.92a13.84,13.84,0,0,0-.41,3.43,6.14,6.14,0,0,0,.16,1.37.75.75,0,0,1-.73.91h-16a.75.75,0,0,1-.62-1.16c.16-.26.3-.49.4-.68a24.7,24.7,0,0,0,2-5.55l4.86-18.73a14.45,14.45,0,0,0,.41-3.46,6.24,6.24,0,0,0-.17-1.36.74.74,0,0,1,.72-.92Z"/><path d="M45.47,50.69H29.66a2.93,2.93,0,0,1-2.9-3.94l4.17-15.81a5.47,5.47,0,0,1,5-3.94H51.72a2.94,2.94,0,0,1,2.9,3.94L50.45,46.75A5.49,5.49,0,0,1,45.47,50.69Z"/><path d="M68.74,51.16H52.93a5.47,5.47,0,0,0-5,3.94L43.78,70.91c-.08.3-.17.6-.24.89a2.25,2.25,0,0,1-1,1.36l-3,1.83a4.21,4.21,0,0,0-.73-.07H23a5.48,5.48,0,0,0-5,3.94L13.84,94.67a2.93,2.93,0,0,0,2.9,3.93H32.55a5.48,5.48,0,0,0,5-3.93L41.7,78.86a3.23,3.23,0,0,0,.11-.67,2.28,2.28,0,0,1,1.06-1.74l2-1.25a2.32,2.32,0,0,1,1.25-.35H62.49a5.49,5.49,0,0,0,5-3.93L71.64,55.1A2.94,2.94,0,0,0,68.74,51.16Z"/><path class="cls-2" d="M140.15,27.68,79.75,27a.66.66,0,0,0-.65.5l-2.27,8.58a.66.66,0,0,0,.63.82l41.77.09c4.27-.11,7.36,4,6,9l-2,10c-1.35,5-7.43,9.45-11.64,9.34l-17-.1c-.9,0-.78.6-1,1.47L91.9,71.38a3.3,3.3,0,0,1-1.34,1.67l-2.1,1.33a3.78,3.78,0,0,1-2.06.54H70.58a5.49,5.49,0,0,0-5,3.94L61.43,94.67a2.93,2.93,0,0,0,2.9,3.93H80.14a5.47,5.47,0,0,0,5-3.93l4.17-15.81a4.4,4.4,0,0,0,.1-.47,2.77,2.77,0,0,1,1.17-1.84l2.35-1.7H93l31.24.14c11.5,0,23.89-4.86,27.8-19.16l3-11C156.23,36,151.64,27.68,140.15,27.68Z"/><polygon points="392.17 54.06 392.17 58.53 390.81 58.53 392.17 54.06"/><path class="cls-2" d="M210.37,45.16H229.7a12.39,12.39,0,0,1,4.41.58,7.5,7.5,0,0,1,4.51,4.44,9,9,0,0,1,.64,3.3,14.56,14.56,0,0,1-.54,3.62l-3,11.65A18,18,0,0,1,234.62,72a8.84,8.84,0,0,1-4.6,4.26A23.27,23.27,0,0,1,223,77H203.74a28.35,28.35,0,0,1-4.54-.22,7,7,0,0,1-4.73-3.18,8.11,8.11,0,0,1-1.33-4.57,10.87,10.87,0,0,1,.41-2.69l3.59-14c.85-3,2.45-5.06,4.82-6.09C203.61,45.55,206.42,45.16,210.37,45.16Zm1.91,9-3.33,13a13.93,13.93,0,0,0-.35,1.87,1.69,1.69,0,0,0,1.11,1.56,5.2,5.2,0,0,0,1.9.22h4.64a9.41,9.41,0,0,0,2.09-.13,3.26,3.26,0,0,0,1.9-2.57l3.21-12.34a10,10,0,0,0,.38-2.32q0-2.13-3.24-2.13h-3.93a7.67,7.67,0,0,0-2.45.23A3.6,3.6,0,0,0,212.28,54.18Z"/></g></svg>