<svg xmlns="http://www.w3.org/2000/svg" viewBox="0 0 400 125"><defs><style>.cls-1{fill:#fff;}.cls-2{fill:#ff3115;}</style></defs><g id="Layer_2" data-name="Layer 2"><path d="M391.21,60.07,387.87,73a7,7,0,0,0-.21,1.8,7.22,7.22,0,0,1-7.06,8.78h-16a7.26,7.26,0,0,1-5-2,7.21,7.21,0,0,1-5,2h-16a7.24,7.24,0,0,1-5.91-3.06,7.21,7.21,0,0,1-5.92,3.06H299.53c-4.85,0-8.73-1.27-11.53-3.78A14,14,0,0,1,283,69a14.73,14.73,0,0,1,.15-2.07l-9,13.4a7.23,7.23,0,0,1-6,3.2h-16a7.28,7.28,0,0,1-7.18-6.22l-1.64-11.56-1.2,4.63a23.1,23.1,0,0,1-1.55,4.54,15.5,15.5,0,0,1-8,7.39c-2.14.82-5,1.19-9.41,1.22H203.83a28.34,28.34,0,0,1-5.85-.36,13.3,13.3,0,0,1-8.84-6,14.62,14.62,0,0,1-2.41-8.16,17.17,17.17,0,0,1,.63-4.36l.8-3.12a7.45,7.45,0,0,1-3-1h0a5.91,5.91,0,0,0-1.41-.17h-3.88L176.63,73a7.45,7.45,0,0,0-.2,1.8,7.23,7.23,0,0,1-7.07,8.78h-16a7.25,7.25,0,0,1-7.14-8.46c-5.93,4.23-13.42,6.43-22,6.43l-28.88-.13L91.41,96.32a12,12,0,0,1-11.27,8.78H380.22a12,12,0,0,0,11.95-11.95V58h-.5C391.54,58.68,391.39,59.36,391.21,60.07Z"/><path d="M64.54,93.15V70a11.94,11.94,0,0,1,6.28-10.52V54.86h7.41a9.34,9.34,0,0,0-9.49-10.2h-11L60.9,32.6a9.68,9.68,0,0,0-1.59-8.46,9.48,9.48,0,0,0-7.59-3.64H35.91a12,12,0,0,0-11.26,8.78L20.47,45.09a9.75,9.75,0,0,0,1.59,8.46,9.5,9.5,0,0,0,7.6,3.64h11l-3,11.23H23A12,12,0,0,0,11.73,77.2L7.56,93a9.69,9.69,0,0,0,1.59,8.46,9.47,9.47,0,0,0,7.59,3.63H32.55a12,12,0,0,0,11.26-8.78l4-15H58.23L55.15,93a9.69,9.69,0,0,0,1.59,8.46,9.47,9.47,0,0,0,7.59,3.63H76.49A12,12,0,0,1,64.54,93.15Z"/><path d="M391.67,58a24.25,24.25,0,0,0,.5-4.63,14.57,14.57,0,0,0-3.92-10.1c-2.84-3.07-6.72-4.62-11.53-4.62H366.25a18,18,0,0,0-3.52.29,6.85,6.85,0,0,0-2-.29H346.23A7.24,7.24,0,0,0,339,45.54a13.85,13.85,0,0,0-8.84-6.31,31.42,31.42,0,0,0-6.6-.56h-20A18,18,0,0,0,294.14,41a7.14,7.14,0,0,0-5.36-2.36h-7a7.22,7.22,0,0,0-7.17,6.19,4.66,4.66,0,0,1-.85,1.82l-4,6.08-.16-1.26a20.09,20.09,0,0,1-.11-2.21,3.2,3.2,0,0,1,.15-1,7.23,7.23,0,0,0-6.84-9.61H247.33a7.24,7.24,0,0,0-5.93,3.08,4.57,4.57,0,0,0-.39.62,14.4,14.4,0,0,0-4.39-2.67,18.46,18.46,0,0,0-6.83-1H210.46c-5,0-8.53.54-11,1.68a13.8,13.8,0,0,0-2.51,1.43,3.3,3.3,0,0,0-.22-.3A7.18,7.18,0,0,0,191,38.67h-7.86a19.29,19.29,0,0,0-5.94.83,7.23,7.23,0,0,0-3.39-.83H161.47A20.42,20.42,0,0,0,156.73,28c-3.93-4.48-9.64-6.85-16.51-6.85l-60.47-.67a7.19,7.19,0,0,0-6.94,5.34l-2.26,8.58a7.14,7.14,0,0,0,6.9,9l41.6.09a2,2,0,0,1-.08.75,3.58,3.58,0,0,0-.11.48l-1.94,9.7A8,8,0,0,1,113.76,58V58Z"/><path d="M91.41,96.32l3.94-14.95,28.88.13c8.6,0,16.09-2.2,22-6.43a7.25,7.25,0,0,0,7.14,8.46h16a7.23,7.23,0,0,0,7.07-8.78,7.45,7.45,0,0,1,.2-1.8l3.24-12.49h3.88a5.91,5.91,0,0,1,1.41.17h0a7.45,7.45,0,0,0,3,1l-.8,3.12a17.17,17.17,0,0,0-.63,4.36,14.62,14.62,0,0,0,2.41,8.16,13.3,13.3,0,0,0,8.84,6,28.34,28.34,0,0,0,5.85.36H223.1c4.38,0,7.27-.4,9.41-1.22a15.5,15.5,0,0,0,8-7.39,23.1,23.1,0,0,0,1.55-4.54l1.2-4.63,1.64,11.56a7.28,7.28,0,0,0,7.18,6.22h16a7.23,7.23,0,0,0,6-3.2l9-13.4A14.73,14.73,0,0,0,283,69a14,14,0,0,0,5,10.75c2.8,2.51,6.68,3.78,11.53,3.78H326.8a7.21,7.21,0,0,0,5.92-3.06,7.24,7.24,0,0,0,5.91,3.06h16a7.21,7.21,0,0,0,5-2,7.26,7.26,0,0,0,5,2h16a7.22,7.22,0,0,0,7.06-8.78,7,7,0,0,1,.21-1.8l3.34-12.88c.18-.71.33-1.39.46-2H113.76V68.84H70.82V59.45A11.94,11.94,0,0,0,64.54,70V93.15A12,12,0,0,0,76.49,105.1h3.65A12,12,0,0,0,91.41,96.32Z"/><path d="M113.76,58V58l-.1.07Z"/><path d="M70.82,59.45A11.92,11.92,0,0,1,76.49,58h1.1l.33-1.27a10.35,10.35,0,0,0,.31-1.89H70.82Z"/><path d="M111.77,58.84l-17.23-.1c-3.74,0-6.51,2.38-7.26,6.23l-1.14,3.18-.41.27H74.85L77.59,58h-1.1a11.92,11.92,0,0,0-5.67,1.43v9.39h42.94V58h-.1A4.55,4.55,0,0,1,111.77,58.84Z"/><path class="cls-1" d="M103.79,92.93l-1,3.7a5.21,5.21,0,0,0-.16,1.33,2.7,2.7,0,0,0,.16.88H95.37c.2-.3.35-.53.45-.71A9.77,9.77,0,0,0,96.59,96l3-11.62a5,5,0,0,0,.16-1.32,2.7,2.7,0,0,0-.16-.88h13.1a9,9,0,0,1,1.61.1,2.82,2.82,0,0,1,2,1.38,3.05,3.05,0,0,1,.43,1.53,5.19,5.19,0,0,1-.2,1.15l-.77,3a4.88,4.88,0,0,1-1.65,2.89,4.4,4.4,0,0,1-2.23.73h-8.12Zm.72-2.74h3a2.38,2.38,0,0,0,1.48-.33,2.21,2.21,0,0,0,.57-1.21l.63-2.39a2.58,2.58,0,0,0,.07-.52.77.77,0,0,0-.33-.68,2.2,2.2,0,0,0-1-.13h-3.09Z"/><path class="cls-1" d="M140.34,96.21l-1.08,2.63H128.58a4,4,0,0,1-2.77-.82,2.91,2.91,0,0,1-1.07-2.27,3.87,3.87,0,0,1,.13-1l1.4-5.41q.7-2.79,3.9-2.78h7.65a10.29,10.29,0,0,1,2,.15,2.82,2.82,0,0,1,1.85,1.36,3,3,0,0,1,.4,1.55,4.52,4.52,0,0,1-.16,1.21l-.78,3H131.06l-.29,1.14a2.6,2.6,0,0,0-.11.67.66.66,0,0,0,.14.41.68.68,0,0,0,.36.25,7.36,7.36,0,0,0,1.11.08h5.91A7.16,7.16,0,0,0,140.34,96.21Zm-8.66-4.68h4.07l.35-1.39a2.15,2.15,0,0,0,.09-.55c0-.42-.29-.62-.87-.62h-1.89a1.74,1.74,0,0,0-.92.18,1.79,1.79,0,0,0-.47,1Z"/><path class="cls-1" d="M160,86.59c0,.29,0,.65,0,1.07a9.94,9.94,0,0,1-.08,1,6.15,6.15,0,0,1,.67-1.07,2.41,2.41,0,0,1,.71-.59,4.17,4.17,0,0,1,2-.42h3.4l-1,4A3.07,3.07,0,0,0,163.6,90h-2.1a2.38,2.38,0,0,0-1.06.18,1.3,1.3,0,0,0-.61.88l-1.46,5.62a5.41,5.41,0,0,0-.15,1.31,3,3,0,0,0,.15.88h-7.05c.21-.31.36-.54.45-.71a9.77,9.77,0,0,0,.77-2.13l1.87-7.2a5.83,5.83,0,0,0,.16-1.33,2.73,2.73,0,0,0-.17-.88Z"/><path class="cls-1" d="M190,86.59,189.39,89h-4.85l-2,7.68a4.85,4.85,0,0,0-.16,1.31,2.7,2.7,0,0,0,.16.88h-7.06c.21-.32.36-.55.45-.71a9.77,9.77,0,0,0,.77-2.13l1.82-7h-2.72l.62-2.38h2.71l.17-.64a8.93,8.93,0,0,1,.77-2.15,3,3,0,0,1,1-1,3.53,3.53,0,0,1,1.37-.52,13.11,13.11,0,0,1,2-.12h6.86L191,85a3.59,3.59,0,0,0-1.89-.39h-1.83a4.56,4.56,0,0,0-1.22.1,1,1,0,0,0-.54.69l-.31,1.24Z"/><path class="cls-1" d="M204.58,86.59H212a4.74,4.74,0,0,1,1.69.22,2.89,2.89,0,0,1,1.74,1.71,3.44,3.44,0,0,1,.24,1.26,5.59,5.59,0,0,1-.21,1.4l-1.15,4.48a7.59,7.59,0,0,1-.42,1.25,3.4,3.4,0,0,1-1.77,1.64,8.86,8.86,0,0,1-2.71.29H202a12.1,12.1,0,0,1-1.74-.08,2.7,2.7,0,0,1-1.82-1.22,3.15,3.15,0,0,1-.51-1.76,4.33,4.33,0,0,1,.15-1l1.38-5.37A3.36,3.36,0,0,1,201.35,87,8.25,8.25,0,0,1,204.58,86.59Zm.74,3.46-1.29,5a5.24,5.24,0,0,0-.13.72.65.65,0,0,0,.43.6,2.21,2.21,0,0,0,.73.08h1.78a3.38,3.38,0,0,0,.81,0,1.27,1.27,0,0,0,.73-1l1.23-4.74a3.77,3.77,0,0,0,.15-.9c0-.54-.42-.81-1.25-.81H207a3.31,3.31,0,0,0-.94.08A1.38,1.38,0,0,0,205.32,90.05Z"/><path class="cls-1" d="M233.66,86.59c0,.29,0,.65,0,1.07s0,.64-.09,1a7.66,7.66,0,0,1,.67-1.07,2.69,2.69,0,0,1,.71-.59,4.24,4.24,0,0,1,2-.42h3.39l-1,4a3.09,3.09,0,0,0-2.05-.63h-2.1a2.43,2.43,0,0,0-1.07.18,1.33,1.33,0,0,0-.61.88L232,96.65a5.4,5.4,0,0,0-.16,1.31,3,3,0,0,0,.16.88H225c.21-.31.36-.54.45-.71a9.77,9.77,0,0,0,.77-2.13l1.86-7.2a5.32,5.32,0,0,0,.16-1.33,2.48,2.48,0,0,0-.17-.88Z"/><path class="cls-1" d="M257,86.59l-.3,1.18a2.23,2.23,0,0,1,.83-1,3.31,3.31,0,0,1,1.44-.23h6a2.32,2.32,0,0,1,1.11.19,1.74,1.74,0,0,1,.68,1,2.17,2.17,0,0,1,.79-1,2.49,2.49,0,0,1,1.12-.2h4.36a3.11,3.11,0,0,1,2.3.85,3.27,3.27,0,0,1,1,2.43,6.33,6.33,0,0,1-.25,1.43l-1.38,5.35a5.06,5.06,0,0,0-.16,1.31,2.7,2.7,0,0,0,.16.88h-7.06c.21-.31.36-.54.45-.71a8.81,8.81,0,0,0,.77-2.13l1.42-5.46a3.38,3.38,0,0,0,.12-.77c0-.54-.39-.8-1.18-.8h-1.48a1.69,1.69,0,0,0-.93.2,2.15,2.15,0,0,0-.51,1l-1.66,6.45A5.05,5.05,0,0,0,264.5,98a2.67,2.67,0,0,0,.17.86H257.6a7,7,0,0,0,.46-.71,10.33,10.33,0,0,0,.77-2.13l1.37-5.35a7.18,7.18,0,0,0,.2-.94.68.68,0,0,0-.43-.63,1.17,1.17,0,0,0-.58-.11h-1.48a2.07,2.07,0,0,0-1.12.22,1.93,1.93,0,0,0-.54,1.09l-1.65,6.37a5.4,5.4,0,0,0-.16,1.31,3,3,0,0,0,.16.88h-7c.21-.31.36-.54.45-.71a9.77,9.77,0,0,0,.77-2.13l1.86-7.2a5.32,5.32,0,0,0,.16-1.33,2.48,2.48,0,0,0-.17-.88Z"/><path class="cls-1" d="M289.68,86.59h11.19a3.23,3.23,0,0,1,2.18.67,3.08,3.08,0,0,1,1.12,2.43,6.92,6.92,0,0,1-.27,1.66l-1.36,5.28a5.1,5.1,0,0,0-.16,1.33,2.74,2.74,0,0,0,.16.88h-5.93a3,3,0,0,1-.14-.88v-.33a2,2,0,0,1-.94,1,3.81,3.81,0,0,1-1.44.25h-3.54a4,4,0,0,1-2.61-.75,2.75,2.75,0,0,1-1.1-2.24,4.13,4.13,0,0,1,.17-1.13l.3-1.19a3.83,3.83,0,0,1,1.5-2.4,3.34,3.34,0,0,1,1.29-.44,10.08,10.08,0,0,1,1.2,0H297a1.41,1.41,0,0,0,.85-.16,1,1,0,0,0,.35-.86.52.52,0,0,0-.35-.55,2.84,2.84,0,0,0-1-.11h-6a5.38,5.38,0,0,0-2.6.47Zm7.75,6.4h-2.9a1.94,1.94,0,0,0-.94.16,1.4,1.4,0,0,0-.43.83l-.33,1.25a3.44,3.44,0,0,0-.1.51.62.62,0,0,0,.32.59,2,2,0,0,0,.87.13h1.47a2.18,2.18,0,0,0,1-.14,1.43,1.43,0,0,0,.35-.74Z"/><path class="cls-1" d="M323.16,86.59l-.29,1.13a2,2,0,0,1,.89-1,3.53,3.53,0,0,1,1.16-.14h4a3.37,3.37,0,0,1,2.6,1,3.16,3.16,0,0,1,.84,2.19,8.36,8.36,0,0,1-.29,2l-1.28,5a5,5,0,0,0-.16,1.31,2.7,2.7,0,0,0,.16.88h-7.06c.21-.31.36-.54.45-.71A9.77,9.77,0,0,0,325,96l1.4-5.43a7.59,7.59,0,0,0,.21-1q0-.46-.54-.6a3.89,3.89,0,0,0-.63,0H324a1.61,1.61,0,0,0-1,.23,1.7,1.7,0,0,0-.49.94l-1.68,6.51a5,5,0,0,0-.16,1.31,2.7,2.7,0,0,0,.16.88h-7.06c.21-.31.36-.54.45-.71A9.27,9.27,0,0,0,315,96l1.87-7.2a5.32,5.32,0,0,0,.16-1.33,2.73,2.73,0,0,0-.17-.88Z"/><path class="cls-1" d="M358.06,89.37a3.89,3.89,0,0,0-1.93-.4H352a2,2,0,0,0-1.1.22.92.92,0,0,0-.39.45,2.61,2.61,0,0,0-.19.58L349.1,95a3.08,3.08,0,0,0-.12.64.65.65,0,0,0,.48.68,4.37,4.37,0,0,0,1.19.12h3.49a12.07,12.07,0,0,0,1.27,0,3.62,3.62,0,0,0,.87-.25l-1.1,2.68H347a4.76,4.76,0,0,1-2.92-.69A2.72,2.72,0,0,1,343,96a6.3,6.3,0,0,1,.23-1.4l1.32-5.09a3.66,3.66,0,0,1,1.57-2.36,5.78,5.78,0,0,1,2.92-.52h9.37Z"/><path class="cls-1" d="M383,96.21,382,98.84H371.29a4,4,0,0,1-2.77-.82,2.92,2.92,0,0,1-1.08-2.27,3.91,3.91,0,0,1,.14-1l1.4-5.41q.69-2.79,3.89-2.78h7.66a10.36,10.36,0,0,1,2,.15,2.78,2.78,0,0,1,1.84,1.36,3,3,0,0,1,.41,1.55,5,5,0,0,1-.16,1.21l-.78,3H373.77l-.3,1.14a3.13,3.13,0,0,0-.11.67.67.67,0,0,0,.15.41.66.66,0,0,0,.35.25,7.67,7.67,0,0,0,1.11.08h5.91A7.08,7.08,0,0,0,383,96.21Zm-8.65-4.68h4.06l.36-1.39a2.59,2.59,0,0,0,.08-.55c0-.42-.29-.62-.86-.62h-1.9a1.7,1.7,0,0,0-.91.18,1.86,1.86,0,0,0-.48,1Z"/><path class="cls-1" d="M164.9,34.71a3.87,3.87,0,0,0,.41-1L166.73,28a3.09,3.09,0,0,0,.12-1.05h6.39l-.09,1.19a2.94,2.94,0,0,0-1.17-.19h-2.62a.41.41,0,0,0-.4.32l-.38,1.53a.42.42,0,0,0,.4.52h2a3.63,3.63,0,0,0,1.25-.19l-.34,1.37a2.91,2.91,0,0,0-1.16-.18h-2.24a.41.41,0,0,0-.41.31l-.52,2.08a2.82,2.82,0,0,0-.11,1Z"/><path class="cls-1" d="M184.15,33.42a9,9,0,0,0-.18.93.4.4,0,0,1-.41.36H182l0-.59h0a1,1,0,0,1-1,.59h-2.63c-1,0-1.33-.41-.94-2s.93-2,1.93-2h3a.33.33,0,0,0,.37-.27l.09-.36c0-.2,0-.27-.24-.27h-3.19a4,4,0,0,0-1.06.12l.38-1h5.07c1,0,1.32.47,1.06,1.53Zm-3.92-1.78c-.28,0-.39.11-.46.42l-.34,1.34c-.07.3,0,.41.26.41h1.88c.28,0,.39-.11.47-.41l.31-1.24a.43.43,0,0,0-.41-.52Z"/><path class="cls-1" d="M196.68,33.43a1.61,1.61,0,0,1-1.78,1.28H190l.08-1a3.85,3.85,0,0,0,1.36.13h2.58a.53.53,0,0,0,.55-.38l.08-.31c0-.24-.08-.38-.36-.38h-2.69c-.88,0-1.18-.5-.92-1.56l.18-.7c.26-1.06.81-1.54,1.69-1.54h5l-.09,1a3.75,3.75,0,0,0-1.35-.13h-2.68a.43.43,0,0,0-.47.34l-.06.27c-.06.23,0,.34.29.34h2.61c1,0,1.36.43,1.14,1.28Z"/><path class="cls-1" d="M208.34,29.84H206.6a.41.41,0,0,0-.4.32l-.77,3.07c-.12.47,0,.58.38.58h.87a4,4,0,0,0,1.22-.13l-.45,1h-3.12c-.85,0-1.26-.5-1-1.62l.82-3.25h-1.11l.21-.85h1.11l.22-.9a.42.42,0,0,1,.35-.31l1.91-.24L206.49,29h2.06Z"/><path class="cls-1" d="M228,26.91a3.69,3.69,0,0,0-.4,1.05l-1.43,5.71a3.05,3.05,0,0,0-.11,1h-2.59a3.57,3.57,0,0,0,.41-1L225.32,28a3.09,3.09,0,0,0,.12-1.05Z"/><path class="cls-1" d="M239.12,33.23a1.62,1.62,0,0,1-1.78,1.28h-4.87l.08-1a3.85,3.85,0,0,0,1.36.13h2.58a.52.52,0,0,0,.55-.38l.08-.31c0-.23-.08-.38-.36-.38h-2.69c-.88,0-1.18-.5-.92-1.56l.17-.69c.27-1.06.82-1.55,1.69-1.55h5.06l-.08,1a3.78,3.78,0,0,0-1.36-.14H236a.41.41,0,0,0-.46.34l-.07.27c-.06.23,0,.34.29.34h2.61c1,0,1.35.43,1.14,1.28Z"/><path class="cls-1" d="M257.06,32.5a.41.41,0,0,0-.35.18l-.67,1a3.51,3.51,0,0,0-.38.75.42.42,0,0,1-.39.29h-1.2a10.24,10.24,0,0,0,1.21-1.5l4-5.78-.21-.52h2.21a.42.42,0,0,1,.41.34l1.23,6a3.74,3.74,0,0,0,.46,1.47h-2.88a.48.48,0,0,0,.07-.18,2.55,2.55,0,0,0-.05-1.11l-.18-.92Zm3-1.51-.3-1.47a.42.42,0,0,0-.76-.16l-1,1.48a.42.42,0,0,0,.35.66h1.31A.43.43,0,0,0,260.08,31Z"/><path class="cls-1" d="M271.58,33.42a5.59,5.59,0,0,0-.18.93.42.42,0,0,1-.42.36h-2a5.4,5.4,0,0,0,.45-1.29l1.3-5.21c.1-.42.15-.71.18-.93a.41.41,0,0,1,.42-.37h1.3a.42.42,0,0,1,.41.53Z"/><path class="cls-1" d="M280.43,33.42a7.26,7.26,0,0,0-.19.93.4.4,0,0,1-.41.36h-2a5.4,5.4,0,0,0,.45-1.29l1.3-5.21c.1-.42.15-.71.18-.93a.41.41,0,0,1,.41-.37h1.31a.43.43,0,0,1,.41.53Z"/><path class="cls-1" d="M298.32,34.71a.42.42,0,0,1-.42-.4l-.18-6a6.63,6.63,0,0,0-.07-1,.42.42,0,0,1,.42-.47h2.32a2.77,2.77,0,0,0-.26.6,3.07,3.07,0,0,0-.07.85l.08,4.67h0l3-5.89a.44.44,0,0,1,.38-.23h1.13a.42.42,0,0,1,.42.42l.09,5.7h0l2.34-4.64a5.68,5.68,0,0,0,.38-.93,1.24,1.24,0,0,0,.05-.55h1.59a5.14,5.14,0,0,0-1,1.44l-3.14,6.13a.42.42,0,0,1-.37.23h-1.65a.41.41,0,0,1-.42-.41l-.11-4.67h0l-2.48,4.85a.41.41,0,0,1-.37.23Z"/><path class="cls-1" d="M315.84,32.37l-.25,1c-.08.3,0,.41.26.41h3.69a3.91,3.91,0,0,0,.69-.07l-.41,1h-5.24c-1,0-1.32-.47-1.06-1.53l.66-2.66A1.73,1.73,0,0,1,316,29h4c1,0,1.32.47,1,1.53l-.38,1.54a.43.43,0,0,1-.41.31Zm2.83-.9.3-1.17c.07-.3,0-.41-.27-.41h-1.87c-.28,0-.4.11-.47.41l-.29,1.17Z"/><path class="cls-1" d="M338.74,32.08a.4.4,0,0,0-.14.22l-.34,1.37a3.06,3.06,0,0,0-.12,1h-2.58a3.87,3.87,0,0,0,.41-1L337.39,28a3.09,3.09,0,0,0,.12-1.05h2.58a4.07,4.07,0,0,0-.41,1.05L339,30.64l3.76-3a1.93,1.93,0,0,0,.48-.49.44.44,0,0,1,.36-.21h1.68a12.14,12.14,0,0,0-1.4.93l-1.54,1.34a.43.43,0,0,0-.13.43l1.11,4a2.91,2.91,0,0,0,.52,1.13h-2.44a.43.43,0,0,1-.41-.32l-.69-2.84a.42.42,0,0,0-.68-.22Z"/><path class="cls-1" d="M352.92,29l-.09.58h0c.26-.45.45-.58.81-.58h2.6c1,0,1.32.47,1.06,1.53l-.72,2.9a7.26,7.26,0,0,0-.19.93.4.4,0,0,1-.41.36h-2a5.69,5.69,0,0,0,.44-1.29l.78-3.12c.08-.3,0-.41-.26-.41h-1.8c-.28,0-.4.11-.47.41l-.78,3.12a6.6,6.6,0,0,0-.18.93.42.42,0,0,1-.42.36h-2a5.69,5.69,0,0,0,.44-1.29l.78-3.14a7.62,7.62,0,0,0,.19-.93.4.4,0,0,1,.41-.36Z"/><path class="cls-1" d="M363.87,34.71c-1,0-1.32-.47-1.05-1.53l.66-2.66A1.72,1.72,0,0,1,365.3,29h4c1,0,1.32.47,1.06,1.53l-.66,2.66a1.73,1.73,0,0,1-1.82,1.53Zm3.15-.9c.28,0,.39-.11.47-.41l.77-3.1c.08-.3,0-.41-.26-.41h-1.88c-.28,0-.39.11-.47.41l-.77,3.1c-.07.3,0,.41.27.41Z"/><path class="cls-1" d="M376.4,30.59a7.79,7.79,0,0,0-.08-1.13.41.41,0,0,1,.41-.47h1.95a1.6,1.6,0,0,0-.14.39,28.26,28.26,0,0,0,0,3.75h0l1.93-3.91a.41.41,0,0,1,.37-.23h1.8a.43.43,0,0,1,.42.4l.11,3.74h0L385,29.69a4,4,0,0,0,.21-.5.83.83,0,0,0,0-.2h1.17a13.41,13.41,0,0,0-1.44,2.65l-1.43,2.84a.41.41,0,0,1-.37.23h-1.54a.41.41,0,0,1-.42-.41L381,30.09h0l-2.16,4.4a.43.43,0,0,1-.38.23h-1.57a.43.43,0,0,1-.42-.41Z"/><path d="M387.15,44.31c-2.54-2.75-6-4.14-10.43-4.14H366.25a15.34,15.34,0,0,0-3.59.34,5.64,5.64,0,0,0-2-.34H346.23a5.74,5.74,0,0,0-5.59,7.06,1,1,0,0,1,0,.22,9.58,9.58,0,0,1-.25,2.21l-.84,3.24a12.73,12.73,0,0,0-1.73-6.34,12.32,12.32,0,0,0-8-5.86,29.61,29.61,0,0,0-6.27-.53h-20a15.69,15.69,0,0,0-9.81,2.92,5.66,5.66,0,0,0-5-2.92h-7a5.72,5.72,0,0,0-5.69,4.91A5.84,5.84,0,0,1,275,47.51L268.73,57l-.67-5.27a20.91,20.91,0,0,1-.12-2.39,4.49,4.49,0,0,1,.24-1.5,5.74,5.74,0,0,0-5.43-7.62H247.33a5.7,5.7,0,0,0-5.7,5.09,12.64,12.64,0,0,0-5.57-4.17,17,17,0,0,0-6.27-.92H210.46c-4.8,0-8.12.5-10.41,1.56a12.53,12.53,0,0,0-3.6,2.38,5.57,5.57,0,0,0-.92-1.71A5.68,5.68,0,0,0,191,40.17h-7.86a17.18,17.18,0,0,0-6.11,1,5.79,5.79,0,0,0-3.22-1H161a6,6,0,0,0-.85.07A19.18,19.18,0,0,0,155.6,29c-3.63-4.15-9-6.34-15.4-6.34L79.75,22a5.68,5.68,0,0,0-5.49,4.22L72,34.82a5.65,5.65,0,0,0,5.45,7.09l42,.09a.92.92,0,0,1,.79.39,2.71,2.71,0,0,1,.23,2.27,2.7,2.7,0,0,0-.09.36l-2,9.79c-.86,2.76-4.83,5.53-6.61,5.53l-17.22-.1c-3.06,0-5.22,1.9-5.81,5.12l-1.35,3.78-1.21.78H72.9l3.57-13.55a8.21,8.21,0,0,0-1.32-7.16,8,8,0,0,0-6.41-3.05h-13l3.68-13.95a8.18,8.18,0,0,0-1.32-7.15A8,8,0,0,0,51.72,22H35.91a10.48,10.48,0,0,0-9.81,7.66L21.92,45.47a8.23,8.23,0,0,0,1.33,7.16,8,8,0,0,0,6.41,3.06h13L39,69.46l-.75.46H23a10.47,10.47,0,0,0-9.81,7.66L9,93.39a8.21,8.21,0,0,0,1.32,7.16,8,8,0,0,0,6.41,3H32.55a10.47,10.47,0,0,0,9.81-7.66L46.56,80l.31-.2h13.3L56.6,93.39a8.18,8.18,0,0,0,1.33,7.16,8,8,0,0,0,6.4,3H80.14A10.49,10.49,0,0,0,90,95.94l4.16-15.8.39-.28,29.72.14c10.77,0,19.68-3.65,25.68-10.14a15.71,15.71,0,0,1-1.12,2.92c-.06.12-.15.26-.25.42A5.75,5.75,0,0,0,153.39,82h16a5.75,5.75,0,0,0,5.61-7,1.53,1.53,0,0,1,0-.3,8.65,8.65,0,0,1,.25-2.18L178.7,59h5.09a4.72,4.72,0,0,1,2.11.36,5.85,5.85,0,0,0,2.91.78,5.68,5.68,0,0,0,1.32-.17l-1.32,5.15a15.61,15.61,0,0,0-.58,4,13.2,13.2,0,0,0,2.16,7.34,11.94,11.94,0,0,0,7.89,5.31,28.3,28.3,0,0,0,5.55.32h19.26c4.19,0,6.91-.36,8.87-1.11a14,14,0,0,0,7.23-6.67A22.21,22.21,0,0,0,240.63,70l3-11.64c0-.09,0-.17.07-.27l2.7,19A5.77,5.77,0,0,0,252.1,82h16a5.74,5.74,0,0,0,4.77-2.53l13.72-20.35L285,65.22a15.1,15.1,0,0,0-.51,3.78A12.63,12.63,0,0,0,289,78.63c2.53,2.26,6.07,3.4,10.54,3.4H326.8a5.71,5.71,0,0,0,5.32-3.58l.79-1.92a5.69,5.69,0,0,0,5.72,5.5h16a5.73,5.73,0,0,0,4.48-2.14,6.23,6.23,0,0,0,.54-.8,5.72,5.72,0,0,0,5,2.94h16a5.75,5.75,0,0,0,5.61-7,2.48,2.48,0,0,1,0-.3,8.63,8.63,0,0,1,.26-2.18l3.33-12.87a25.59,25.59,0,0,0,.92-6.31A13.13,13.13,0,0,0,387.15,44.31ZM334.58,71.55a5.72,5.72,0,0,0-.6-2.87,5.86,5.86,0,0,0,1.88-1.39l-.28,1.06A32.46,32.46,0,0,1,334.58,71.55Zm27-3.2c-.2.75-.39,1.38-.56,1.91l3.6-13.91h.05Z"/><path class="cls-1" d="M64.33,102.1a6.49,6.49,0,0,1-5.21-2.47,6.69,6.69,0,0,1-1.07-5.86l4.07-15.43H46.43l-1.21.76a5.27,5.27,0,0,1-.14.64L40.91,95.56a8.93,8.93,0,0,1-8.36,6.54H16.74a6.5,6.5,0,0,1-5.22-2.47,6.72,6.72,0,0,1-1.06-5.86L14.63,78A8.93,8.93,0,0,1,23,71.42H38.67l1.61-1,4.29-16.24H29.66a6.5,6.5,0,0,1-5.22-2.47,6.69,6.69,0,0,1-1.06-5.86l4.17-15.81a8.94,8.94,0,0,1,8.36-6.55H51.72A6.5,6.5,0,0,1,56.94,26,6.73,6.73,0,0,1,58,31.83L53.83,47.66H68.74A6.5,6.5,0,0,1,74,50.13,6.72,6.72,0,0,1,75,56L71,71.42H86.39a.75.75,0,0,0,.26,0l2-1.26,1.56-4.38,0-.11c.45-2.49,2-3.9,4.34-3.9l17.21.1c2.57,0,7.09-3.35,8.08-6.66l2-9.87c0-.07,0-.16.06-.25a4.1,4.1,0,0,0-.48-3.58,2.42,2.42,0,0,0-2-1l-41.94-.09a4.15,4.15,0,0,1-4-5.21l2.26-8.59a4.18,4.18,0,0,1,4-3.1l60.43.67c6,0,10.95,2,14.29,5.83s4.85,9.32,4.05,15.29c0,.16-.06.32-.1.47l-3,11C151.68,70.37,140,78.5,124.23,78.5L94,78.36l-1.24.9c0,.16-.07.32-.11.49L88.5,95.56a8.92,8.92,0,0,1-8.36,6.54Z"/><path class="cls-1" d="M153.34,31c-3-3.48-7.61-5.31-13.17-5.31L79.75,25a2.66,2.66,0,0,0-2.58,2L74.9,35.58a2.65,2.65,0,0,0,2.56,3.33L119.4,39a3.89,3.89,0,0,1,3.17,1.58,5.54,5.54,0,0,1,.73,4.89l0,.14-2,9.93c-1.15,4-6.33,7.8-9.54,7.8l-17.21-.1c-1.58,0-2.54.88-2.85,2.63l-.06.28L90,70.71a1.24,1.24,0,0,1-.52.65l-2.1,1.33a1.85,1.85,0,0,1-1,.23H70.58a6.23,6.23,0,0,0-2,.35,7.11,7.11,0,0,0,.82-1.85l4.17-15.81a5.24,5.24,0,0,0-.8-4.57,5,5,0,0,0-4-1.88H52.93a6.48,6.48,0,0,0-1.52.21,7.1,7.1,0,0,0,1-2.11l4.17-15.81a5.21,5.21,0,0,0-.8-4.56,5,5,0,0,0-4-1.89H35.91A7.5,7.5,0,0,0,29,30.43L24.83,46.24a5.21,5.21,0,0,0,.8,4.56,5,5,0,0,0,4,1.89H45.47A6.55,6.55,0,0,0,47,52.48a6.75,6.75,0,0,0-1,2.11L41.85,70.4l-.25.89a.26.26,0,0,1-.12.17l-2.4,1.46H23a7.49,7.49,0,0,0-6.91,5.43L11.91,94.16a5.22,5.22,0,0,0,.8,4.56,5,5,0,0,0,4,1.88H32.55a7.49,7.49,0,0,0,6.91-5.42l4.17-15.82a5.84,5.84,0,0,0,.18-1,.25.25,0,0,1,.12-.21l2-1.26a.43.43,0,0,1,.17,0H62.49a6.62,6.62,0,0,0,2-.34,6.56,6.56,0,0,0-.83,1.85L59.5,94.16a5.22,5.22,0,0,0,.8,4.56,5,5,0,0,0,4,1.88H80.14a7.48,7.48,0,0,0,6.91-5.42l4.18-15.81a6.35,6.35,0,0,0,.14-.71.86.86,0,0,1,.36-.49l1.81-1.31,30.69.14c15.08,0,26.19-7.71,29.73-20.64l3-11a2,2,0,0,0,.05-.26C157.77,39.57,156.46,34.56,153.34,31Z"/><path class="cls-1" d="M153.39,80.53a4.25,4.25,0,0,1-3.72-2.2A4.3,4.3,0,0,1,149.8,74a5.49,5.49,0,0,0,.3-.49,21.35,21.35,0,0,0,1.69-4.78L156.64,50a10.55,10.55,0,0,0,.3-2.58,2.17,2.17,0,0,0-.08-.55,4.27,4.27,0,0,1,.81-3.63,4.21,4.21,0,0,1,3.32-1.6H173.8a4.27,4.27,0,0,1,3,1.21,14.71,14.71,0,0,1,6.35-1.21H191A4.24,4.24,0,0,1,195.1,47l-2.18,8.45a4.23,4.23,0,0,1-4.11,3.17,4.28,4.28,0,0,1-2.15-.58,6.17,6.17,0,0,0-2.83-.56h-5.36a6.47,6.47,0,0,0-.94,0s-3.8,14.69-3.8,14.69a10.08,10.08,0,0,0-.3,2.55,3.1,3.1,0,0,0,.08.62,4.26,4.26,0,0,1-4.15,5.16Z"/><path class="cls-1" d="M153.39,79a2.73,2.73,0,0,1-2.4-1.42,2.77,2.77,0,0,1,.08-2.81c.15-.22.26-.41.35-.57a23.62,23.62,0,0,0,1.82-5.11l4.85-18.71a12.25,12.25,0,0,0,.35-3,3.92,3.92,0,0,0-.12-.9,2.79,2.79,0,0,1,.52-2.35,2.73,2.73,0,0,1,2.15-1H173.8a2.75,2.75,0,0,1,2.54,1.67l.52-.31a12.53,12.53,0,0,1,6.27-1.36H191a2.74,2.74,0,0,1,2.66,3.43l-2.18,8.45a2.75,2.75,0,0,1-2.66,2.05,2.87,2.87,0,0,1-1.4-.37,7.59,7.59,0,0,0-3.54-.77h-5.4a4.29,4.29,0,0,0-1.82.24c-.08,0-.39.22-.59,1l-3.78,14.61a11.71,11.71,0,0,0-.35,2.93,4.77,4.77,0,0,0,.11.94A2.74,2.74,0,0,1,169.36,79Z"/><path class="cls-2" d="M173.8,45.17a.74.74,0,0,1,.75.78c0,.59-.05,1.26-.08,2s-.1,1.66-.22,2.63A16.51,16.51,0,0,1,176,47.8a6.48,6.48,0,0,1,1.84-1.52,10.79,10.79,0,0,1,5.3-1.11H191a.74.74,0,0,1,.72.93l-2.18,8.45a.75.75,0,0,1-1.11.45,9.39,9.39,0,0,0-4.49-1h-5.46a6.2,6.2,0,0,0-2.76.47,3.43,3.43,0,0,0-1.59,2.29l-3.78,14.6a13.84,13.84,0,0,0-.41,3.43,6.14,6.14,0,0,0,.16,1.37.75.75,0,0,1-.73.91h-16a.76.76,0,0,1-.63-1.16c.17-.26.31-.49.41-.68a25.21,25.21,0,0,0,2-5.55L160,50.91a14.45,14.45,0,0,0,.41-3.46,6.24,6.24,0,0,0-.17-1.36.74.74,0,0,1,.72-.92Z"/><path class="cls-1" d="M203.83,80.53a28.09,28.09,0,0,1-5.25-.29,10.45,10.45,0,0,1-6.93-4.67,11.61,11.61,0,0,1-1.92-6.51,13.86,13.86,0,0,1,.53-3.59l3.58-13.94c1.15-4.13,3.44-7,6.81-8.43,2.08-1,5.3-1.43,9.81-1.43h19.33a15.55,15.55,0,0,1,5.71.82A10.89,10.89,0,0,1,242,48.91a12.5,12.5,0,0,1,.88,4.57,17.93,17.93,0,0,1-.66,4.51l-3,11.63a21.05,21.05,0,0,1-1.34,4,12.41,12.41,0,0,1-6.44,5.94c-1.76.68-4.32,1-8.31,1H203.83Zm12.5-13.19h.6s3.23-12.46,3.24-12.49h-3.42l-.94,0a2.18,2.18,0,0,0-.06.22l-3.14,12.25Z"/><path class="cls-1" d="M203.83,79a26.79,26.79,0,0,1-4.94-.26,8.91,8.91,0,0,1-6-4,10.14,10.14,0,0,1-1.67-5.68,12.75,12.75,0,0,1,.48-3.21l3.58-13.94c1-3.66,3-6.15,6-7.43,1.9-.88,4.92-1.31,9.21-1.31h19.33a14.38,14.38,0,0,1,5.16.71,9.51,9.51,0,0,1,5.62,5.57,10.9,10.9,0,0,1,.78,4,16.31,16.31,0,0,1-.61,4.13l-3,11.64a19.89,19.89,0,0,1-1.23,3.66,10.92,10.92,0,0,1-5.65,5.22c-1.56.59-4,.88-7.77.9H203.83Zm6.91-10.23a9,9,0,0,0,1,0h4.63a14.2,14.2,0,0,0,1.5,0,2.06,2.06,0,0,0,.57-1.14l3.2-12.36a7.43,7.43,0,0,0,.32-1.78,3.48,3.48,0,0,0-1.24-.16h-3.93a12.27,12.27,0,0,0-1.69.08,2,2,0,0,0-.76,1.27l-3.33,13C210.85,68.23,210.78,68.58,210.74,68.8Z"/><path class="cls-2" d="M210.46,45.17h19.33a12.67,12.67,0,0,1,4.41.57,7.5,7.5,0,0,1,4.51,4.44,9,9,0,0,1,.64,3.3,14.56,14.56,0,0,1-.54,3.62l-3,11.65A18.5,18.5,0,0,1,234.71,72a8.86,8.86,0,0,1-4.6,4.25q-1.91.74-7.05.76H203.83a28.35,28.35,0,0,1-4.54-.22,7,7,0,0,1-4.73-3.17,8.16,8.16,0,0,1-1.33-4.58,10.87,10.87,0,0,1,.41-2.69l3.59-14c.85-3,2.45-5,4.82-6.09C203.7,45.55,206.51,45.17,210.46,45.17Zm1.91,9-3.33,13a13.93,13.93,0,0,0-.35,1.87,1.69,1.69,0,0,0,1.11,1.56,5.2,5.2,0,0,0,1.9.22h4.64a10.42,10.42,0,0,0,2.09-.12,3.32,3.32,0,0,0,1.9-2.58l3.21-12.34a10,10,0,0,0,.38-2.32q0-2.13-3.24-2.13h-3.93a7.67,7.67,0,0,0-2.45.23A3.62,3.62,0,0,0,212.37,54.18Z"/><path class="cls-1" d="M252.1,80.53a4.28,4.28,0,0,1-4.21-3.65L244.27,51.4a22,22,0,0,0-.93-4,4.23,4.23,0,0,1,4-5.69h15.42a4.23,4.23,0,0,1,4,5.62,6.21,6.21,0,0,0-.32,2,21.9,21.9,0,0,0,.13,2.57l1.19,9.27,8.48-12.79a7.46,7.46,0,0,0,1.32-3,4.23,4.23,0,0,1,4.2-3.64h7a4.19,4.19,0,0,1,3.86,2.47,4.26,4.26,0,0,1-.63,4.54,27,27,0,0,0-2.25,3.13L271.65,78.66a4.25,4.25,0,0,1-3.53,1.87Z"/><path class="cls-1" d="M252.1,79a2.75,2.75,0,0,1-2.72-2.36l-3.62-25.48a23.17,23.17,0,0,0-1-4.34,2.73,2.73,0,0,1,2.58-3.68h15.42A2.78,2.78,0,0,1,265,44.32a2.74,2.74,0,0,1,.35,2.48,7.51,7.51,0,0,0-.4,2.49,25.07,25.07,0,0,0,.14,2.75l1.7,13.28,10.71-16.15A8.59,8.59,0,0,0,279,45.53a2.74,2.74,0,0,1,2.72-2.36h7a2.72,2.72,0,0,1,2.5,1.59,2.77,2.77,0,0,1-.41,3A28.51,28.51,0,0,0,288.49,51L270.4,77.82A2.73,2.73,0,0,1,268.12,79Z"/><path class="cls-2" d="M265.22,68.91a.75.75,0,0,0,1.37.32l12.57-19A10.62,10.62,0,0,0,281,45.83a.75.75,0,0,1,.74-.66h7a.75.75,0,0,1,.57,1.24,30.75,30.75,0,0,0-2.55,3.52L268.75,76.7a.76.76,0,0,1-.63.33h-16a.74.74,0,0,1-.74-.64l-3.62-25.48a26.07,26.07,0,0,0-1.11-4.74.74.74,0,0,1,.7-1h15.42a.73.73,0,0,1,.7,1,9.63,9.63,0,0,0-.51,3.15,24.64,24.64,0,0,0,.16,3Z"/><path class="cls-1" d="M299.53,80.53c-4.09,0-7.3-1-9.54-3A11,11,0,0,1,286,69a13.93,13.93,0,0,1,.46-3.4l3.65-14.08c.92-3.67,3.89-9.85,13.44-9.85h20a28.69,28.69,0,0,1,5.95.49,10.72,10.72,0,0,1,7.06,5.16,11.26,11.26,0,0,1,1.53,5.81,15.78,15.78,0,0,1-.53,4l-1.88,7.34a4.25,4.25,0,0,1-4.12,3.2h-.38a4.25,4.25,0,0,1,1.59,5.15l-2,5a4.23,4.23,0,0,1-3.93,2.65Z"/><path class="cls-1" d="M299.53,79c-3.71,0-6.58-.89-8.54-2.63a9.62,9.62,0,0,1-3.46-7.4,12.42,12.42,0,0,1,.41-3L291.6,51.9c1-4,3.87-8.73,12-8.73h20a27,27,0,0,1,5.63.46,9.24,9.24,0,0,1,6.09,4.45,9.84,9.84,0,0,1,1.32,5.05,14.2,14.2,0,0,1-.48,3.66l-1.88,7.35a2.75,2.75,0,0,1-2.67,2.07H307.52l-.37,1.45a7.34,7.34,0,0,0-.21,1.06c.24,0,.86.07,2.25.12h15.29a22,22,0,0,0,3.88-.28,2.18,2.18,0,0,1,.5,0,2.75,2.75,0,0,1,2.53,3.79l-2.05,5A2.73,2.73,0,0,1,326.8,79Zm17.08-23,.53-2.11a5.23,5.23,0,0,0,.12-.55h-5.13a4.88,4.88,0,0,0-1.17.11,6.26,6.26,0,0,0-.51,1.45L310.16,56Z"/><path class="cls-2" d="M329.54,71.54l-2.05,5a.74.74,0,0,1-.69.47H299.53q-4.83,0-7.2-2.13a7.6,7.6,0,0,1-2.8-5.9,10.45,10.45,0,0,1,.35-2.54l3.65-14.06c1.21-4.84,4.58-7.26,10.13-7.23h19.9a25.12,25.12,0,0,1,5.2.41,7.26,7.26,0,0,1,4.79,3.52,7.79,7.79,0,0,1,1.05,4,12.36,12.36,0,0,1-.41,3.14l-1.89,7.37a.74.74,0,0,1-.73.57h-25a.74.74,0,0,0-.72.56l-.62,2.39a7.74,7.74,0,0,0-.28,1.75,1.74,1.74,0,0,0,.38,1.08,1.59,1.59,0,0,0,.92.63,19.49,19.49,0,0,0,2.89.22h15.36a23,23,0,0,0,4.24-.32A.75.75,0,0,1,329.54,71.54ZM308.56,58h9a.74.74,0,0,0,.72-.57l.78-3.05A5.8,5.8,0,0,0,319.3,53q0-1.62-2.25-1.62h-4.92a4.39,4.39,0,0,0-2.38.48,4.81,4.81,0,0,0-1.24,2.57l-.68,2.68A.75.75,0,0,0,308.56,58Z"/><path class="cls-1" d="M364.63,80.53A4.26,4.26,0,0,1,361,74l.3-.49A22.13,22.13,0,0,0,363,68.73l3.58-13.88h-3.14c0,.11-.08.25-.12.42L359,72.2a10.08,10.08,0,0,0-.3,2.55,3.1,3.1,0,0,0,.08.62,4.24,4.24,0,0,1-4.15,5.16h-16A4.26,4.26,0,0,1,335.05,74l.3-.49A22.18,22.18,0,0,0,337,68.73L341.88,50a10.55,10.55,0,0,0,.3-2.58,2.29,2.29,0,0,0-.08-.56,4.24,4.24,0,0,1,4.13-5.22h14.48a4.18,4.18,0,0,1,1.85.42,12.74,12.74,0,0,1,3.69-.42h10.47c3.94,0,7.08,1.23,9.33,3.66a11.65,11.65,0,0,1,3.12,8.06,24,24,0,0,1-.87,5.94L385,72.2a10.06,10.06,0,0,0-.31,2.55,3.1,3.1,0,0,0,.08.62,4.24,4.24,0,0,1-4.14,5.16Z"/><path class="cls-1" d="M364.63,79a2.74,2.74,0,0,1-2.32-4.22c.14-.23.26-.42.34-.58a23.69,23.69,0,0,0,1.82-5.11L368.12,55c.2-.81.32-1.32.39-1.63-.18,0-.48,0-1,0H363.8a2.88,2.88,0,0,0-1.36.2h0a3.66,3.66,0,0,0-.54,1.35l-4.38,16.92a11.71,11.71,0,0,0-.35,2.93,4.77,4.77,0,0,0,.11.94,2.76,2.76,0,0,1-.54,2.32,2.72,2.72,0,0,1-2.14,1h-16a2.73,2.73,0,0,1-2.4-1.42,2.8,2.8,0,0,1,.08-2.81c.15-.22.26-.41.35-.57a23.05,23.05,0,0,0,1.82-5.11l4.85-18.71a12.25,12.25,0,0,0,.35-3,3.92,3.92,0,0,0-.12-.9,2.76,2.76,0,0,1,.53-2.35,2.7,2.7,0,0,1,2.14-1h14.48a2.78,2.78,0,0,1,1.68.56l0,0a10.12,10.12,0,0,1,3.82-.54h10.47c3.51,0,6.28,1.07,8.23,3.18a10.15,10.15,0,0,1,2.72,7,23,23,0,0,1-.82,5.57l-3.34,12.86a11.71,11.71,0,0,0-.35,2.93,4.17,4.17,0,0,0,.12.94A2.75,2.75,0,0,1,380.6,79Z"/><path class="cls-2" d="M360.71,45.17a.75.75,0,0,1,.73.93l-.52,2a5.39,5.39,0,0,1,2.31-2.57,8.47,8.47,0,0,1,3-.38h10.47c2.94,0,5.2.84,6.76,2.53a8.2,8.2,0,0,1,2.19,5.69,20.9,20.9,0,0,1-.76,5.07l-3.33,12.86a13.38,13.38,0,0,0-.42,3.43,6.87,6.87,0,0,0,.16,1.37.74.74,0,0,1-.72.91h-16a.75.75,0,0,1-.63-1.16c.17-.26.3-.49.41-.68a25.75,25.75,0,0,0,2-5.55l3.65-14.13a19.56,19.56,0,0,0,.54-2.5c0-.81-.47-1.33-1.4-1.56a8.49,8.49,0,0,0-1.65-.1H363.8a4.32,4.32,0,0,0-2.57.61A4.41,4.41,0,0,0,360,54.4l-4.38,16.92a13.84,13.84,0,0,0-.41,3.43,6.14,6.14,0,0,0,.16,1.37.75.75,0,0,1-.73.91h-16a.75.75,0,0,1-.62-1.16c.16-.26.3-.49.4-.68a24.7,24.7,0,0,0,2-5.55l4.86-18.73a14.45,14.45,0,0,0,.41-3.46,6.24,6.24,0,0,0-.17-1.36.74.74,0,0,1,.72-.92Z"/><path d="M45.47,50.69H29.66a2.93,2.93,0,0,1-2.9-3.94l4.17-15.81a5.47,5.47,0,0,1,5-3.94H51.72a2.94,2.94,0,0,1,2.9,3.94L50.45,46.75A5.49,5.49,0,0,1,45.47,50.69Z"/><path d="M68.74,51.16H52.93a5.47,5.47,0,0,0-5,3.94L43.78,70.91c-.08.3-.17.6-.24.89a2.25,2.25,0,0,1-1,1.36l-3,1.83a4.21,4.21,0,0,0-.73-.07H23a5.48,5.48,0,0,0-5,3.94L13.84,94.67a2.93,2.93,0,0,0,2.9,3.93H32.55a5.48,5.48,0,0,0,5-3.93L41.7,78.86a3.23,3.23,0,0,0,.11-.67,2.28,2.28,0,0,1,1.06-1.74l2-1.25a2.32,2.32,0,0,1,1.25-.35H62.49a5.49,5.49,0,0,0,5-3.93L71.64,55.1A2.94,2.94,0,0,0,68.74,51.16Z"/><path class="cls-2" d="M140.15,27.68,79.75,27a.66.66,0,0,0-.65.5l-2.27,8.58a.66.66,0,0,0,.63.82l41.77.09c4.27-.11,7.36,4,6,9l-2,10c-1.35,5-7.43,9.45-11.64,9.34l-17-.1c-.9,0-.78.6-1,1.47L91.9,71.38a3.3,3.3,0,0,1-1.34,1.67l-2.1,1.33a3.78,3.78,0,0,1-2.06.54H70.58a5.49,5.49,0,0,0-5,3.94L61.43,94.67a2.93,2.93,0,0,0,2.9,3.93H80.14a5.47,5.47,0,0,0,5-3.93l4.17-15.81a4.4,4.4,0,0,0,.1-.47,2.77,2.77,0,0,1,1.17-1.84l2.35-1.7H93l31.24.14c11.5,0,23.89-4.86,27.8-19.16l3-11C156.23,36,151.64,27.68,140.15,27.68Z"/><polygon points="392.17 54.06 392.17 58.53 390.81 58.53 392.17 54.06"/></g></svg>